<?xml version="1.0" encoding="UTF-8"?>
<svg xmlns="http://www.w3.org/2000/svg" xmlns:xlink="http://www.w3.org/1999/xlink" width="300" height="300" viewBox="0 0 3001 3001">
<defs>
<clipPath id="clip-0">

</clipPath>
<clipPath id="clip-1">
<path clip-rule="nonzero" d="M 1511.769531 1695.878906 C 1512.230469 1695.140625 1512.800781 1694.339844 1513.289062 1693.589844 C 1512.789062 1694.179688 1512.269531 1694.75 1511.769531 1695.339844 Z M 1511.769531 1695.878906 "/>
</clipPath>
<clipPath id="clip-2">
<path clip-rule="nonzero" d="M 1511.769531 1695.878906 C 1512.230469 1695.140625 1512.800781 1694.339844 1513.289062 1693.589844 C 1512.789062 1694.179688 1512.269531 1694.75 1511.769531 1695.339844 L 1511.769531 1695.878906 "/>
</clipPath>
<linearGradient id="linear-pattern-0" gradientUnits="userSpaceOnUse" x1="-1.806043" y1="0" x2="2.768248" y2="0" gradientTransform="matrix(-0.388277, -0.452595, 0.452595, -0.388277, 1512.72, 1694.95)">
<stop offset="0" stop-color="rgb(91.763306%, 92.155457%, 92.939758%)" stop-opacity="1"/>
<stop offset="0.25" stop-color="rgb(91.763306%, 92.155457%, 92.939758%)" stop-opacity="1"/>
<stop offset="0.375" stop-color="rgb(91.763306%, 92.155457%, 92.939758%)" stop-opacity="1"/>
<stop offset="0.390625" stop-color="rgb(91.763306%, 92.155457%, 92.939758%)" stop-opacity="1"/>
<stop offset="0.394531" stop-color="rgb(90.945435%, 91.32843%, 92.077637%)" stop-opacity="1"/>
<stop offset="0.398438" stop-color="rgb(90.129089%, 90.50293%, 91.215515%)" stop-opacity="1"/>
<stop offset="0.402344" stop-color="rgb(88.362122%, 88.716125%, 89.350891%)" stop-opacity="1"/>
<stop offset="0.40625" stop-color="rgb(86.595154%, 86.929321%, 87.486267%)" stop-opacity="1"/>
<stop offset="0.410156" stop-color="rgb(84.82666%, 85.142517%, 85.621643%)" stop-opacity="1"/>
<stop offset="0.414062" stop-color="rgb(83.059692%, 83.355713%, 83.758545%)" stop-opacity="1"/>
<stop offset="0.417969" stop-color="rgb(81.291199%, 81.568909%, 81.893921%)" stop-opacity="1"/>
<stop offset="0.421875" stop-color="rgb(79.524231%, 79.782104%, 80.029297%)" stop-opacity="1"/>
<stop offset="0.425781" stop-color="rgb(77.757263%, 77.9953%, 78.164673%)" stop-opacity="1"/>
<stop offset="0.429688" stop-color="rgb(75.990295%, 76.208496%, 76.300049%)" stop-opacity="1"/>
<stop offset="0.433594" stop-color="rgb(74.221802%, 74.421692%, 74.435425%)" stop-opacity="1"/>
<stop offset="0.4375" stop-color="rgb(72.454834%, 72.634888%, 72.570801%)" stop-opacity="1"/>
<stop offset="0.441406" stop-color="rgb(70.687866%, 70.848083%, 70.706177%)" stop-opacity="1"/>
<stop offset="0.445312" stop-color="rgb(68.920898%, 69.061279%, 68.841553%)" stop-opacity="1"/>
<stop offset="0.449219" stop-color="rgb(67.152405%, 67.274475%, 66.976929%)" stop-opacity="1"/>
<stop offset="0.453125" stop-color="rgb(65.385437%, 65.487671%, 65.112305%)" stop-opacity="1"/>
<stop offset="0.457031" stop-color="rgb(63.616943%, 63.700867%, 63.247681%)" stop-opacity="1"/>
<stop offset="0.460938" stop-color="rgb(61.849976%, 61.914062%, 61.383057%)" stop-opacity="1"/>
<stop offset="0.464844" stop-color="rgb(60.083008%, 60.127258%, 59.518433%)" stop-opacity="1"/>
<stop offset="0.46875" stop-color="rgb(58.31604%, 58.340454%, 57.653809%)" stop-opacity="1"/>
<stop offset="0.472656" stop-color="rgb(57.681274%, 57.698059%, 56.985474%)" stop-opacity="1"/>
<stop offset="0.476562" stop-color="rgb(57.046509%, 57.05719%, 56.318665%)" stop-opacity="1"/>
<stop offset="0.480469" stop-color="rgb(58.366394%, 58.39386%, 57.71637%)" stop-opacity="1"/>
<stop offset="0.484375" stop-color="rgb(59.687805%, 59.73053%, 59.115601%)" stop-opacity="1"/>
<stop offset="0.488281" stop-color="rgb(61.00769%, 61.065674%, 60.513306%)" stop-opacity="1"/>
<stop offset="0.492188" stop-color="rgb(62.329102%, 62.402344%, 61.912537%)" stop-opacity="1"/>
<stop offset="0.496094" stop-color="rgb(63.648987%, 63.739014%, 63.310242%)" stop-opacity="1"/>
<stop offset="0.5" stop-color="rgb(64.970398%, 65.075684%, 64.709473%)" stop-opacity="1"/>
<stop offset="0.503906" stop-color="rgb(66.290283%, 66.410828%, 66.107178%)" stop-opacity="1"/>
<stop offset="0.507812" stop-color="rgb(67.611694%, 67.747498%, 67.506409%)" stop-opacity="1"/>
<stop offset="0.511719" stop-color="rgb(68.93158%, 69.084167%, 68.904114%)" stop-opacity="1"/>
<stop offset="0.515625" stop-color="rgb(70.252991%, 70.420837%, 70.303345%)" stop-opacity="1"/>
<stop offset="0.519531" stop-color="rgb(71.572876%, 71.755981%, 71.70105%)" stop-opacity="1"/>
<stop offset="0.523438" stop-color="rgb(72.894287%, 73.092651%, 73.100281%)" stop-opacity="1"/>
<stop offset="0.527344" stop-color="rgb(74.215698%, 74.429321%, 74.497986%)" stop-opacity="1"/>
<stop offset="0.53125" stop-color="rgb(75.537109%, 75.765991%, 75.897217%)" stop-opacity="1"/>
<stop offset="0.535156" stop-color="rgb(76.856995%, 77.101135%, 77.294922%)" stop-opacity="1"/>
<stop offset="0.539062" stop-color="rgb(78.178406%, 78.437805%, 78.694153%)" stop-opacity="1"/>
<stop offset="0.542969" stop-color="rgb(79.498291%, 79.772949%, 80.091858%)" stop-opacity="1"/>
<stop offset="0.546875" stop-color="rgb(80.819702%, 81.109619%, 81.489563%)" stop-opacity="1"/>
<stop offset="0.550781" stop-color="rgb(82.139587%, 82.446289%, 82.887268%)" stop-opacity="1"/>
<stop offset="0.554688" stop-color="rgb(83.460999%, 83.782959%, 84.286499%)" stop-opacity="1"/>
<stop offset="0.558594" stop-color="rgb(84.780884%, 85.118103%, 85.684204%)" stop-opacity="1"/>
<stop offset="0.5625" stop-color="rgb(86.102295%, 86.454773%, 87.083435%)" stop-opacity="1"/>
<stop offset="0.566406" stop-color="rgb(87.42218%, 87.791443%, 88.48114%)" stop-opacity="1"/>
<stop offset="0.570312" stop-color="rgb(88.743591%, 89.128113%, 89.880371%)" stop-opacity="1"/>
<stop offset="0.574219" stop-color="rgb(86.434937%, 86.795044%, 87.451172%)" stop-opacity="1"/>
<stop offset="0.578125" stop-color="rgb(84.126282%, 84.461975%, 85.023499%)" stop-opacity="1"/>
<stop offset="0.582031" stop-color="rgb(80.589294%, 80.888367%, 81.300354%)" stop-opacity="1"/>
<stop offset="0.585938" stop-color="rgb(77.052307%, 77.314758%, 77.578735%)" stop-opacity="1"/>
<stop offset="0.589844" stop-color="rgb(73.51532%, 73.74115%, 73.855591%)" stop-opacity="1"/>
<stop offset="0.59375" stop-color="rgb(69.979858%, 70.167542%, 70.133972%)" stop-opacity="1"/>
<stop offset="0.597656" stop-color="rgb(66.442871%, 66.593933%, 66.410828%)" stop-opacity="1"/>
<stop offset="0.601562" stop-color="rgb(62.90741%, 63.020325%, 62.689209%)" stop-opacity="1"/>
<stop offset="0.605469" stop-color="rgb(59.370422%, 59.446716%, 58.966064%)" stop-opacity="1"/>
<stop offset="0.609375" stop-color="rgb(55.834961%, 55.873108%, 55.24292%)" stop-opacity="1"/>
<stop offset="0.613281" stop-color="rgb(53.994751%, 54.014587%, 53.30658%)" stop-opacity="1"/>
<stop offset="0.617188" stop-color="rgb(52.156067%, 52.156067%, 51.371765%)" stop-opacity="1"/>
<stop offset="0.625" stop-color="rgb(52.156067%, 52.156067%, 51.371765%)" stop-opacity="1"/>
<stop offset="0.75" stop-color="rgb(52.156067%, 52.156067%, 51.371765%)" stop-opacity="1"/>
<stop offset="1" stop-color="rgb(52.156067%, 52.156067%, 51.371765%)" stop-opacity="1"/>
</linearGradient>
<clipPath id="clip-3">
<path clip-rule="nonzero" d="M 767 1011 L 1994 1011 L 1994 2083 L 767 2083 Z M 767 1011 "/>
</clipPath>
<clipPath id="clip-4">
<path clip-rule="nonzero" d="M 1592.601562 1266.050781 C 1569.578125 1262.839844 1533.179688 1251.058594 1516.050781 1245.710938 C 1574.398438 1200.738281 1638.101562 1202.878906 1638.101562 1202.878906 L 1637.558594 1234.46875 C 1675.03125 1249.988281 1716.78125 1274.078125 1716.78125 1274.078125 C 1716.78125 1274.078125 1623.640625 1269.789062 1592.601562 1266.050781 Z M 1390.261719 1327.601562 C 1259.648438 1383.808594 1207.199219 1487.648438 1191.140625 1559.921875 C 1176.148438 1513.878906 1176.148438 1415.929688 1254.839844 1343.660156 C 1195.421875 1361.859375 1123.160156 1392.371094 1097.460938 1428.769531 C 1069.628906 1373.101562 1106.558594 1278.890625 1187.929688 1308.328125 C 1206.660156 1281.570312 1218.96875 1273.011719 1218.96875 1273.011719 C 1181.5 1224.300781 1103.351562 1217.871094 1051.96875 1243.570312 L 1073.378906 1266.050781 C 1024.671875 1319.578125 1028.949219 1397.191406 1072.308594 1451.789062 C 989.339844 1544.390625 990.945312 1734.949219 1055.710938 1821.671875 C 891.917969 1714.609375 913.328125 1488.191406 958.828125 1398.800781 C 979.167969 1423.960938 1014.5 1434.128906 1043.398438 1433.589844 C 965.785156 1369.359375 969.53125 1230.179688 1077.660156 1187.898438 C 1123.691406 1169.699219 1182.570312 1170.769531 1224.859375 1196.460938 C 1309.441406 1154.171875 1427.730469 1133.300781 1518.730469 1140.789062 C 1294.980469 1211.980469 1334.058594 1273.539062 1390.261719 1327.601562 Z M 1993.519531 1574.898438 C 1991.921875 1576.511719 1990.851562 1577.050781 1989.78125 1577.578125 C 1977.460938 1579.71875 1968.898438 1555.628906 1936.25 1558.308594 C 1916.980469 1559.921875 1859.699219 1582.929688 1815.808594 1602.199219 C 1791.71875 1612.371094 1776.199219 1619.328125 1765.488281 1637 C 1749.441406 1613.441406 1749.441406 1593.101562 1776.199219 1578.648438 C 1827.589844 1549.75 1949.628906 1537.96875 1952.839844 1462.5 C 1954.449219 1429.839844 1940.53125 1402.539062 1924.46875 1398.800781 C 1903.601562 1393.441406 1884.328125 1414.851562 1838.289062 1413.78125 C 1792.789062 1412.179688 1760.140625 1365.609375 1760.140625 1365.609375 C 1850.070312 1391.839844 1865.058594 1328.140625 1948.019531 1316.359375 L 1754.25 1196.460938 C 1754.25 1196.460938 1753.179688 1163.269531 1715.710938 1149.359375 C 1678.78125 1134.898438 1586.710938 1140.261719 1586.710938 1140.261719 C 1540.140625 1079.769531 1458.78125 1012.859375 1353.328125 1011.789062 C 1407.390625 1039.089844 1455.570312 1082.980469 1476.441406 1104.390625 C 1379.019531 1089.941406 1327.628906 1084.050781 1247.878906 1093.691406 C 1261.261719 1101.179688 1299.269531 1124.730469 1308.898438 1137.578125 C 1176.148438 1127.941406 1091.039062 1138.121094 972.210938 1195.929688 C 1056.78125 1095.828125 1138.679688 1073.878906 1182.039062 1063.710938 C 967.390625 1072.28125 775.226562 1235 767.195312 1378.460938 C 795.03125 1354.371094 880.675781 1311.550781 933.132812 1307.800781 C 721.164062 1730.671875 1053.570312 2037.390625 1399.359375 2082.351562 C 1210.410156 1977.96875 952.402344 1718.359375 1148.320312 1460.890625 C 1062.671875 1658.410156 1227.539062 1880.011719 1411.140625 1946.921875 C 1465.199219 1966.730469 1497.320312 1946.921875 1446.46875 1828.628906 C 1486.609375 1855.390625 1520.339844 1884.828125 1547.628906 1917.480469 C 1535.320312 1751.550781 1381.160156 1761.179688 1343.691406 1673.929688 C 1324.960938 1715.679688 1344.230469 1776.699219 1367.25 1813.640625 C 1144.03125 1732.808594 1218.441406 1407.898438 1418.628906 1370.429688 C 1362.960938 1408.96875 1356 1526.730469 1463.601562 1496.75 C 1518.191406 1481.230469 1544.421875 1457.140625 1634.351562 1446.96875 C 1561.550781 1477.480469 1481.261719 1519.230469 1429.339844 1563.128906 C 1519.269531 1502.640625 1626.320312 1455 1724.808594 1431.980469 C 1736.589844 1429.308594 1739.800781 1444.300781 1727.488281 1447.511719 C 1705.011719 1453.929688 1682.53125 1460.351562 1660.039062 1468.378906 C 1661.648438 1471.058594 1663.261719 1474.808594 1665.398438 1478.019531 C 1596.351562 1517.628906 1508.558594 1581.859375 1467.878906 1631.109375 C 1549.238281 1556.699219 1649.871094 1492.46875 1746.21875 1455.539062 C 1757.460938 1451.25 1762.820312 1465.171875 1751.039062 1470.519531 C 1725.878906 1481.230469 1700.730469 1493.011719 1676.101562 1505.851562 C 1677.710938 1511.210938 1679.308594 1516.558594 1679.851562 1521.378906 C 1622.359375 1567.789062 1545.738281 1643.25 1513.289062 1693.589844 C 1583.191406 1611.308594 1672.449219 1536.550781 1760.140625 1488.191406 C 1770.851562 1482.300781 1777.808594 1495.679688 1767.101562 1502.109375 C 1734.449219 1521.910156 1702.328125 1543.859375 1671.28125 1566.871094 C 1650.410156 1633.78125 1720 1693.738281 1762.28125 1731.738281 C 1797.078125 1725.851562 1838.828125 1714.609375 1885.398438 1711.941406 C 1923.398438 1709.789062 1959.269531 1713.539062 1981.210938 1717.289062 C 1978 1692.128906 1987.640625 1599.53125 1993.519531 1574.898438 Z M 1993.519531 1574.898438 "/>
</clipPath>
<clipPath id="clip-5">
<path clip-rule="nonzero" d="M 1592.601562 1266.050781 C 1569.578125 1262.839844 1533.179688 1251.058594 1516.050781 1245.710938 C 1574.398438 1200.738281 1638.101562 1202.878906 1638.101562 1202.878906 L 1637.558594 1234.46875 C 1675.03125 1249.988281 1716.78125 1274.078125 1716.78125 1274.078125 C 1716.78125 1274.078125 1623.640625 1269.789062 1592.601562 1266.050781 Z M 1390.261719 1327.601562 C 1259.648438 1383.808594 1207.199219 1487.648438 1191.140625 1559.921875 C 1176.148438 1513.878906 1176.148438 1415.929688 1254.839844 1343.660156 C 1195.421875 1361.859375 1123.160156 1392.371094 1097.460938 1428.769531 C 1069.628906 1373.101562 1106.558594 1278.890625 1187.929688 1308.328125 C 1206.660156 1281.570312 1218.96875 1273.011719 1218.96875 1273.011719 C 1181.5 1224.300781 1103.351562 1217.871094 1051.96875 1243.570312 L 1073.378906 1266.050781 C 1024.671875 1319.578125 1028.949219 1397.191406 1072.308594 1451.789062 C 989.339844 1544.390625 990.945312 1734.949219 1055.710938 1821.671875 C 891.917969 1714.609375 913.328125 1488.191406 958.828125 1398.800781 C 979.167969 1423.960938 1014.5 1434.128906 1043.398438 1433.589844 C 965.785156 1369.359375 969.53125 1230.179688 1077.660156 1187.898438 C 1123.691406 1169.699219 1182.570312 1170.769531 1224.859375 1196.460938 C 1309.441406 1154.171875 1427.730469 1133.300781 1518.730469 1140.789062 C 1294.980469 1211.980469 1334.058594 1273.539062 1390.261719 1327.601562 Z M 1993.519531 1574.898438 C 1991.921875 1576.511719 1990.851562 1577.050781 1989.78125 1577.578125 C 1977.460938 1579.71875 1968.898438 1555.628906 1936.25 1558.308594 C 1916.980469 1559.921875 1859.699219 1582.929688 1815.808594 1602.199219 C 1791.71875 1612.371094 1776.199219 1619.328125 1765.488281 1637 C 1749.441406 1613.441406 1749.441406 1593.101562 1776.199219 1578.648438 C 1827.589844 1549.75 1949.628906 1537.96875 1952.839844 1462.5 C 1954.449219 1429.839844 1940.53125 1402.539062 1924.46875 1398.800781 C 1903.601562 1393.441406 1884.328125 1414.851562 1838.289062 1413.78125 C 1792.789062 1412.179688 1760.140625 1365.609375 1760.140625 1365.609375 C 1850.070312 1391.839844 1865.058594 1328.140625 1948.019531 1316.359375 L 1754.25 1196.460938 C 1754.25 1196.460938 1753.179688 1163.269531 1715.710938 1149.359375 C 1678.78125 1134.898438 1586.710938 1140.261719 1586.710938 1140.261719 C 1540.140625 1079.769531 1458.78125 1012.859375 1353.328125 1011.789062 C 1407.390625 1039.089844 1455.570312 1082.980469 1476.441406 1104.390625 C 1379.019531 1089.941406 1327.628906 1084.050781 1247.878906 1093.691406 C 1261.261719 1101.179688 1299.269531 1124.730469 1308.898438 1137.578125 C 1176.148438 1127.941406 1091.039062 1138.121094 972.210938 1195.929688 C 1056.78125 1095.828125 1138.679688 1073.878906 1182.039062 1063.710938 C 967.390625 1072.28125 775.226562 1235 767.195312 1378.460938 C 795.03125 1354.371094 880.675781 1311.550781 933.132812 1307.800781 C 721.164062 1730.671875 1053.570312 2037.390625 1399.359375 2082.351562 C 1210.410156 1977.96875 952.402344 1718.359375 1148.320312 1460.890625 C 1062.671875 1658.410156 1227.539062 1880.011719 1411.140625 1946.921875 C 1465.199219 1966.730469 1497.320312 1946.921875 1446.46875 1828.628906 C 1486.609375 1855.390625 1520.339844 1884.828125 1547.628906 1917.480469 C 1535.320312 1751.550781 1381.160156 1761.179688 1343.691406 1673.929688 C 1324.960938 1715.679688 1344.230469 1776.699219 1367.25 1813.640625 C 1144.03125 1732.808594 1218.441406 1407.898438 1418.628906 1370.429688 C 1362.960938 1408.96875 1356 1526.730469 1463.601562 1496.75 C 1518.191406 1481.230469 1544.421875 1457.140625 1634.351562 1446.96875 C 1561.550781 1477.480469 1481.261719 1519.230469 1429.339844 1563.128906 C 1519.269531 1502.640625 1626.320312 1455 1724.808594 1431.980469 C 1736.589844 1429.308594 1739.800781 1444.300781 1727.488281 1447.511719 C 1705.011719 1453.929688 1682.53125 1460.351562 1660.039062 1468.378906 C 1661.648438 1471.058594 1663.261719 1474.808594 1665.398438 1478.019531 C 1596.351562 1517.628906 1508.558594 1581.859375 1467.878906 1631.109375 C 1549.238281 1556.699219 1649.871094 1492.46875 1746.21875 1455.539062 C 1757.460938 1451.25 1762.820312 1465.171875 1751.039062 1470.519531 C 1725.878906 1481.230469 1700.730469 1493.011719 1676.101562 1505.851562 C 1677.710938 1511.210938 1679.308594 1516.558594 1679.851562 1521.378906 C 1622.359375 1567.789062 1545.738281 1643.25 1513.289062 1693.589844 C 1583.191406 1611.308594 1672.449219 1536.550781 1760.140625 1488.191406 C 1770.851562 1482.300781 1777.808594 1495.679688 1767.101562 1502.109375 C 1734.449219 1521.910156 1702.328125 1543.859375 1671.28125 1566.871094 C 1650.410156 1633.78125 1720 1693.738281 1762.28125 1731.738281 C 1797.078125 1725.851562 1838.828125 1714.609375 1885.398438 1711.941406 C 1923.398438 1709.789062 1959.269531 1713.539062 1981.210938 1717.289062 C 1978 1692.128906 1987.640625 1599.53125 1993.519531 1574.898438 "/>
</clipPath>
<linearGradient id="linear-pattern-1" gradientUnits="userSpaceOnUse" x1="-0.470347" y1="0" x2="1.37104" y2="0" gradientTransform="matrix(-580.256, -676.375, 676.375, -580.256, 1658.41, 1817.57)">
<stop offset="0" stop-color="rgb(91.763306%, 92.155457%, 92.939758%)" stop-opacity="1"/>
<stop offset="0.25" stop-color="rgb(91.763306%, 92.155457%, 92.939758%)" stop-opacity="1"/>
<stop offset="0.253906" stop-color="rgb(91.546631%, 91.93573%, 92.710876%)" stop-opacity="1"/>
<stop offset="0.257812" stop-color="rgb(91.329956%, 91.717529%, 92.483521%)" stop-opacity="1"/>
<stop offset="0.261719" stop-color="rgb(90.618896%, 90.997314%, 91.732788%)" stop-opacity="1"/>
<stop offset="0.265625" stop-color="rgb(89.907837%, 90.278625%, 90.982056%)" stop-opacity="1"/>
<stop offset="0.269531" stop-color="rgb(89.195251%, 89.558411%, 90.231323%)" stop-opacity="1"/>
<stop offset="0.273438" stop-color="rgb(88.484192%, 88.839722%, 89.480591%)" stop-opacity="1"/>
<stop offset="0.277344" stop-color="rgb(87.771606%, 88.121033%, 88.729858%)" stop-opacity="1"/>
<stop offset="0.28125" stop-color="rgb(87.060547%, 87.402344%, 87.979126%)" stop-opacity="1"/>
<stop offset="0.285156" stop-color="rgb(86.349487%, 86.682129%, 87.228394%)" stop-opacity="1"/>
<stop offset="0.289062" stop-color="rgb(85.638428%, 85.96344%, 86.477661%)" stop-opacity="1"/>
<stop offset="0.292969" stop-color="rgb(84.925842%, 85.243225%, 85.726929%)" stop-opacity="1"/>
<stop offset="0.296875" stop-color="rgb(84.214783%, 84.524536%, 84.977722%)" stop-opacity="1"/>
<stop offset="0.300781" stop-color="rgb(83.503723%, 83.804321%, 84.22699%)" stop-opacity="1"/>
<stop offset="0.304688" stop-color="rgb(82.792664%, 83.085632%, 83.476257%)" stop-opacity="1"/>
<stop offset="0.308594" stop-color="rgb(82.080078%, 82.365417%, 82.725525%)" stop-opacity="1"/>
<stop offset="0.3125" stop-color="rgb(81.369019%, 81.646729%, 81.974792%)" stop-opacity="1"/>
<stop offset="0.316406" stop-color="rgb(80.657959%, 80.92804%, 81.22406%)" stop-opacity="1"/>
<stop offset="0.320313" stop-color="rgb(79.946899%, 80.209351%, 80.473328%)" stop-opacity="1"/>
<stop offset="0.324219" stop-color="rgb(79.234314%, 79.489136%, 79.722595%)" stop-opacity="1"/>
<stop offset="0.328125" stop-color="rgb(78.523254%, 78.770447%, 78.971863%)" stop-opacity="1"/>
<stop offset="0.332031" stop-color="rgb(77.812195%, 78.050232%, 78.22113%)" stop-opacity="1"/>
<stop offset="0.335938" stop-color="rgb(77.101135%, 77.331543%, 77.471924%)" stop-opacity="1"/>
<stop offset="0.339844" stop-color="rgb(76.38855%, 76.611328%, 76.721191%)" stop-opacity="1"/>
<stop offset="0.34375" stop-color="rgb(75.67749%, 75.892639%, 75.970459%)" stop-opacity="1"/>
<stop offset="0.347656" stop-color="rgb(74.966431%, 75.17395%, 75.219727%)" stop-opacity="1"/>
<stop offset="0.351562" stop-color="rgb(74.255371%, 74.455261%, 74.468994%)" stop-opacity="1"/>
<stop offset="0.355469" stop-color="rgb(73.542786%, 73.735046%, 73.718262%)" stop-opacity="1"/>
<stop offset="0.359375" stop-color="rgb(72.831726%, 73.016357%, 72.967529%)" stop-opacity="1"/>
<stop offset="0.363281" stop-color="rgb(72.120667%, 72.296143%, 72.216797%)" stop-opacity="1"/>
<stop offset="0.367188" stop-color="rgb(71.409607%, 71.577454%, 71.46759%)" stop-opacity="1"/>
<stop offset="0.371094" stop-color="rgb(70.697021%, 70.857239%, 70.716858%)" stop-opacity="1"/>
<stop offset="0.375" stop-color="rgb(69.985962%, 70.13855%, 69.966125%)" stop-opacity="1"/>
<stop offset="0.378906" stop-color="rgb(69.273376%, 69.418335%, 69.215393%)" stop-opacity="1"/>
<stop offset="0.382812" stop-color="rgb(68.562317%, 68.699646%, 68.464661%)" stop-opacity="1"/>
<stop offset="0.386719" stop-color="rgb(67.851257%, 67.980957%, 67.713928%)" stop-opacity="1"/>
<stop offset="0.390625" stop-color="rgb(67.140198%, 67.262268%, 66.963196%)" stop-opacity="1"/>
<stop offset="0.394531" stop-color="rgb(66.427612%, 66.542053%, 66.212463%)" stop-opacity="1"/>
<stop offset="0.398437" stop-color="rgb(65.716553%, 65.823364%, 65.461731%)" stop-opacity="1"/>
<stop offset="0.402344" stop-color="rgb(65.005493%, 65.103149%, 64.710999%)" stop-opacity="1"/>
<stop offset="0.40625" stop-color="rgb(64.294434%, 64.38446%, 63.961792%)" stop-opacity="1"/>
<stop offset="0.410156" stop-color="rgb(63.581848%, 63.664246%, 63.21106%)" stop-opacity="1"/>
<stop offset="0.414062" stop-color="rgb(62.870789%, 62.945557%, 62.460327%)" stop-opacity="1"/>
<stop offset="0.417969" stop-color="rgb(62.159729%, 62.225342%, 61.709595%)" stop-opacity="1"/>
<stop offset="0.421875" stop-color="rgb(61.448669%, 61.506653%, 60.958862%)" stop-opacity="1"/>
<stop offset="0.425781" stop-color="rgb(60.736084%, 60.787964%, 60.20813%)" stop-opacity="1"/>
<stop offset="0.429688" stop-color="rgb(60.025024%, 60.069275%, 59.457397%)" stop-opacity="1"/>
<stop offset="0.433594" stop-color="rgb(59.313965%, 59.34906%, 58.706665%)" stop-opacity="1"/>
<stop offset="0.4375" stop-color="rgb(58.602905%, 58.630371%, 57.957458%)" stop-opacity="1"/>
<stop offset="0.441406" stop-color="rgb(57.89032%, 57.910156%, 57.206726%)" stop-opacity="1"/>
<stop offset="0.445312" stop-color="rgb(57.17926%, 57.191467%, 56.455994%)" stop-opacity="1"/>
<stop offset="0.449219" stop-color="rgb(56.747437%, 56.755066%, 56.001282%)" stop-opacity="1"/>
<stop offset="0.453125" stop-color="rgb(56.317139%, 56.32019%, 55.548096%)" stop-opacity="1"/>
<stop offset="0.457031" stop-color="rgb(56.848145%, 56.8573%, 56.109619%)" stop-opacity="1"/>
<stop offset="0.460938" stop-color="rgb(57.380676%, 57.395935%, 56.672668%)" stop-opacity="1"/>
<stop offset="0.464844" stop-color="rgb(57.911682%, 57.933044%, 57.235718%)" stop-opacity="1"/>
<stop offset="0.46875" stop-color="rgb(58.444214%, 58.47168%, 57.798767%)" stop-opacity="1"/>
<stop offset="0.472656" stop-color="rgb(58.97522%, 59.008789%, 58.361816%)" stop-opacity="1"/>
<stop offset="0.476562" stop-color="rgb(59.507751%, 59.547424%, 58.924866%)" stop-opacity="1"/>
<stop offset="0.480469" stop-color="rgb(60.038757%, 60.084534%, 59.487915%)" stop-opacity="1"/>
<stop offset="0.484375" stop-color="rgb(60.571289%, 60.623169%, 60.050964%)" stop-opacity="1"/>
<stop offset="0.488281" stop-color="rgb(61.102295%, 61.160278%, 60.614014%)" stop-opacity="1"/>
<stop offset="0.492188" stop-color="rgb(61.634827%, 61.698914%, 61.177063%)" stop-opacity="1"/>
<stop offset="0.496094" stop-color="rgb(62.165833%, 62.236023%, 61.740112%)" stop-opacity="1"/>
<stop offset="0.5" stop-color="rgb(62.696838%, 62.774658%, 62.303162%)" stop-opacity="1"/>
<stop offset="0.503906" stop-color="rgb(63.227844%, 63.311768%, 62.864685%)" stop-opacity="1"/>
<stop offset="0.507812" stop-color="rgb(63.760376%, 63.850403%, 63.427734%)" stop-opacity="1"/>
<stop offset="0.511719" stop-color="rgb(64.291382%, 64.389038%, 63.990784%)" stop-opacity="1"/>
<stop offset="0.515625" stop-color="rgb(64.823914%, 64.927673%, 64.553833%)" stop-opacity="1"/>
<stop offset="0.519531" stop-color="rgb(65.354919%, 65.464783%, 65.116882%)" stop-opacity="1"/>
<stop offset="0.523438" stop-color="rgb(65.887451%, 66.003418%, 65.679932%)" stop-opacity="1"/>
<stop offset="0.527344" stop-color="rgb(66.418457%, 66.540527%, 66.242981%)" stop-opacity="1"/>
<stop offset="0.53125" stop-color="rgb(66.950989%, 67.079163%, 66.80603%)" stop-opacity="1"/>
<stop offset="0.535156" stop-color="rgb(67.481995%, 67.616272%, 67.36908%)" stop-opacity="1"/>
<stop offset="0.539062" stop-color="rgb(68.014526%, 68.154907%, 67.932129%)" stop-opacity="1"/>
<stop offset="0.542969" stop-color="rgb(68.545532%, 68.692017%, 68.495178%)" stop-opacity="1"/>
<stop offset="0.546875" stop-color="rgb(69.076538%, 69.230652%, 69.058228%)" stop-opacity="1"/>
<stop offset="0.550781" stop-color="rgb(69.607544%, 69.767761%, 69.619751%)" stop-opacity="1"/>
<stop offset="0.554688" stop-color="rgb(70.140076%, 70.306396%, 70.1828%)" stop-opacity="1"/>
<stop offset="0.558594" stop-color="rgb(70.671082%, 70.843506%, 70.74585%)" stop-opacity="1"/>
<stop offset="0.5625" stop-color="rgb(71.203613%, 71.382141%, 71.308899%)" stop-opacity="1"/>
<stop offset="0.566406" stop-color="rgb(71.734619%, 71.91925%, 71.871948%)" stop-opacity="1"/>
<stop offset="0.570313" stop-color="rgb(72.267151%, 72.457886%, 72.434998%)" stop-opacity="1"/>
<stop offset="0.574219" stop-color="rgb(72.798157%, 72.994995%, 72.998047%)" stop-opacity="1"/>
<stop offset="0.578125" stop-color="rgb(73.330688%, 73.53363%, 73.561096%)" stop-opacity="1"/>
<stop offset="0.582031" stop-color="rgb(73.861694%, 74.07074%, 74.124146%)" stop-opacity="1"/>
<stop offset="0.585937" stop-color="rgb(74.394226%, 74.609375%, 74.687195%)" stop-opacity="1"/>
<stop offset="0.589844" stop-color="rgb(74.925232%, 75.146484%, 75.250244%)" stop-opacity="1"/>
<stop offset="0.59375" stop-color="rgb(75.457764%, 75.68512%, 75.813293%)" stop-opacity="1"/>
<stop offset="0.597656" stop-color="rgb(75.98877%, 76.222229%, 76.374817%)" stop-opacity="1"/>
<stop offset="0.601562" stop-color="rgb(76.519775%, 76.760864%, 76.937866%)" stop-opacity="1"/>
<stop offset="0.605469" stop-color="rgb(77.050781%, 77.297974%, 77.500916%)" stop-opacity="1"/>
<stop offset="0.609375" stop-color="rgb(77.583313%, 77.836609%, 78.063965%)" stop-opacity="1"/>
<stop offset="0.613281" stop-color="rgb(78.114319%, 78.373718%, 78.627014%)" stop-opacity="1"/>
<stop offset="0.617187" stop-color="rgb(78.646851%, 78.912354%, 79.190063%)" stop-opacity="1"/>
<stop offset="0.621094" stop-color="rgb(79.177856%, 79.449463%, 79.753113%)" stop-opacity="1"/>
<stop offset="0.625" stop-color="rgb(79.710388%, 79.988098%, 80.316162%)" stop-opacity="1"/>
<stop offset="0.628906" stop-color="rgb(80.241394%, 80.525208%, 80.879211%)" stop-opacity="1"/>
<stop offset="0.632812" stop-color="rgb(80.773926%, 81.063843%, 81.442261%)" stop-opacity="1"/>
<stop offset="0.636719" stop-color="rgb(81.304932%, 81.600952%, 82.00531%)" stop-opacity="1"/>
<stop offset="0.640625" stop-color="rgb(81.837463%, 82.139587%, 82.568359%)" stop-opacity="1"/>
<stop offset="0.644531" stop-color="rgb(82.368469%, 82.676697%, 83.129883%)" stop-opacity="1"/>
<stop offset="0.648437" stop-color="rgb(82.899475%, 83.215332%, 83.692932%)" stop-opacity="1"/>
<stop offset="0.652344" stop-color="rgb(83.430481%, 83.752441%, 84.255981%)" stop-opacity="1"/>
<stop offset="0.65625" stop-color="rgb(83.963013%, 84.291077%, 84.819031%)" stop-opacity="1"/>
<stop offset="0.660156" stop-color="rgb(84.494019%, 84.828186%, 85.38208%)" stop-opacity="1"/>
<stop offset="0.664062" stop-color="rgb(85.02655%, 85.366821%, 85.945129%)" stop-opacity="1"/>
<stop offset="0.667969" stop-color="rgb(85.557556%, 85.903931%, 86.508179%)" stop-opacity="1"/>
<stop offset="0.671875" stop-color="rgb(86.090088%, 86.442566%, 87.071228%)" stop-opacity="1"/>
<stop offset="0.675781" stop-color="rgb(86.621094%, 86.979675%, 87.634277%)" stop-opacity="1"/>
<stop offset="0.679688" stop-color="rgb(87.153625%, 87.518311%, 88.197327%)" stop-opacity="1"/>
<stop offset="0.683594" stop-color="rgb(87.684631%, 88.05542%, 88.760376%)" stop-opacity="1"/>
<stop offset="0.6875" stop-color="rgb(88.217163%, 88.594055%, 89.323425%)" stop-opacity="1"/>
<stop offset="0.691406" stop-color="rgb(88.748169%, 89.13269%, 89.884949%)" stop-opacity="1"/>
<stop offset="0.695312" stop-color="rgb(89.280701%, 89.671326%, 90.447998%)" stop-opacity="1"/>
<stop offset="0.699219" stop-color="rgb(88.096619%, 88.475037%, 89.202881%)" stop-opacity="1"/>
<stop offset="0.703125" stop-color="rgb(86.914062%, 87.280273%, 87.95929%)" stop-opacity="1"/>
<stop offset="0.707031" stop-color="rgb(85.490417%, 85.84137%, 86.460876%)" stop-opacity="1"/>
<stop offset="0.710938" stop-color="rgb(84.066772%, 84.403992%, 84.962463%)" stop-opacity="1"/>
<stop offset="0.714844" stop-color="rgb(82.643127%, 82.965088%, 83.46405%)" stop-opacity="1"/>
<stop offset="0.71875" stop-color="rgb(81.221008%, 81.526184%, 81.965637%)" stop-opacity="1"/>
<stop offset="0.722656" stop-color="rgb(79.797363%, 80.08728%, 80.467224%)" stop-opacity="1"/>
<stop offset="0.726562" stop-color="rgb(78.373718%, 78.648376%, 78.968811%)" stop-opacity="1"/>
<stop offset="0.730469" stop-color="rgb(76.950073%, 77.209473%, 77.470398%)" stop-opacity="1"/>
<stop offset="0.734375" stop-color="rgb(75.526428%, 75.772095%, 75.971985%)" stop-opacity="1"/>
<stop offset="0.738281" stop-color="rgb(74.102783%, 74.333191%, 74.473572%)" stop-opacity="1"/>
<stop offset="0.742188" stop-color="rgb(72.679138%, 72.894287%, 72.975159%)" stop-opacity="1"/>
<stop offset="0.746094" stop-color="rgb(71.255493%, 71.455383%, 71.47522%)" stop-opacity="1"/>
<stop offset="0.75" stop-color="rgb(69.831848%, 70.018005%, 69.976807%)" stop-opacity="1"/>
<stop offset="0.753906" stop-color="rgb(68.408203%, 68.579102%, 68.478394%)" stop-opacity="1"/>
<stop offset="0.757812" stop-color="rgb(66.984558%, 67.140198%, 66.97998%)" stop-opacity="1"/>
<stop offset="0.761719" stop-color="rgb(65.560913%, 65.701294%, 65.481567%)" stop-opacity="1"/>
<stop offset="0.765625" stop-color="rgb(64.137268%, 64.263916%, 63.983154%)" stop-opacity="1"/>
<stop offset="0.769531" stop-color="rgb(62.713623%, 62.825012%, 62.484741%)" stop-opacity="1"/>
<stop offset="0.773438" stop-color="rgb(61.289978%, 61.386108%, 60.986328%)" stop-opacity="1"/>
<stop offset="0.777344" stop-color="rgb(59.866333%, 59.947205%, 59.487915%)" stop-opacity="1"/>
<stop offset="0.78125" stop-color="rgb(58.442688%, 58.508301%, 57.989502%)" stop-opacity="1"/>
<stop offset="0.785156" stop-color="rgb(57.019043%, 57.069397%, 56.491089%)" stop-opacity="1"/>
<stop offset="0.789062" stop-color="rgb(55.595398%, 55.632019%, 54.992676%)" stop-opacity="1"/>
<stop offset="0.792969" stop-color="rgb(54.171753%, 54.193115%, 53.494263%)" stop-opacity="1"/>
<stop offset="0.796875" stop-color="rgb(52.748108%, 52.754211%, 51.99585%)" stop-opacity="1"/>
<stop offset="0.800781" stop-color="rgb(52.452087%, 52.455139%, 51.683044%)" stop-opacity="1"/>
<stop offset="0.804688" stop-color="rgb(52.156067%, 52.156067%, 51.371765%)" stop-opacity="1"/>
<stop offset="0.8125" stop-color="rgb(52.156067%, 52.156067%, 51.371765%)" stop-opacity="1"/>
<stop offset="0.875" stop-color="rgb(52.156067%, 52.156067%, 51.371765%)" stop-opacity="1"/>
<stop offset="1" stop-color="rgb(52.156067%, 52.156067%, 51.371765%)" stop-opacity="1"/>
</linearGradient>
<clipPath id="clip-6">
<path clip-rule="nonzero" d="M 776 534 L 1632 534 L 1632 1005 L 776 1005 Z M 776 534 "/>
</clipPath>
<clipPath id="clip-7">
<path clip-rule="nonzero" d="M 1366.710938 861.910156 C 1366.710938 842.640625 1364.570312 830.328125 1357.078125 812.660156 C 1374.199219 801.960938 1383.300781 792.859375 1395.078125 776.800781 C 1395.078125 796.070312 1397.21875 808.378906 1404.71875 826.050781 C 1388.121094 836.75 1378.488281 846.390625 1366.710938 861.910156 Z M 1235.03125 884.929688 C 1221.648438 860.308594 1210.410156 845.851562 1188.460938 828.191406 C 1202.378906 804.640625 1208.269531 787.511719 1212.011719 760.738281 C 1225.398438 784.828125 1236.640625 799.28125 1258.578125 817.480469 C 1244.671875 841.03125 1239.308594 857.628906 1235.03125 884.929688 Z M 1047.148438 891.890625 C 1048.75 872.078125 1046.609375 859.769531 1040.191406 841.570312 C 1056.78125 852.28125 1068.558594 857.628906 1087.828125 861.910156 C 1086.761719 881.179688 1088.898438 894.03125 1094.789062 911.691406 C 1078.730469 900.988281 1066.949219 895.628906 1047.148438 891.890625 Z M 1580.289062 682.058594 C 1577.070312 667.070312 1561.550781 657.429688 1544.960938 660.109375 C 1527.828125 663.320312 1516.050781 678.839844 1518.730469 694.898438 C 1520.871094 708.820312 1534.25 718.988281 1549.238281 718.460938 C 1541.75 740.941406 1511.769531 769.839844 1457.710938 770.378906 C 1414.351562 770.910156 1412.738281 732.371094 1417.03125 704.539062 C 1436.828125 700.261719 1449.679688 682.589844 1447 663.859375 C 1443.789062 645.121094 1424.519531 633.351562 1404.71875 636.558594 C 1384.378906 640.308594 1370.460938 658.5 1373.671875 677.238281 C 1375.269531 686.871094 1380.628906 694.371094 1388.121094 699.191406 C 1351.71875 755.390625 1224.859375 774.660156 1225.929688 696.511719 C 1232.890625 699.71875 1241.449219 700.789062 1250.019531 699.191406 C 1271.429688 695.441406 1285.878906 676.171875 1282.671875 656.359375 C 1278.921875 636.558594 1259.121094 623.710938 1237.710938 627.460938 C 1232.351562 628.53125 1227 630.671875 1222.71875 633.878906 C 1232.890625 596.949219 1218.441406 579.28125 1171.328125 534.320312 C 1141.359375 593.199219 1133.859375 615.148438 1155.808594 646.191406 C 1150.460938 645.121094 1145.101562 644.589844 1139.21875 645.660156 C 1117.808594 649.941406 1103.351562 668.671875 1106.558594 688.480469 C 1110.308594 708.28125 1130.121094 721.128906 1151.53125 717.378906 C 1160.089844 715.78125 1167.589844 711.5 1173.46875 706.140625 C 1199.699219 778.941406 1073.910156 806.238281 1021.460938 766.101562 C 1026.808594 759.140625 1029.480469 750.039062 1027.878906 740.941406 C 1024.671875 722.199219 1005.929688 709.890625 985.589844 713.640625 C 965.25 717.378906 951.867188 735.578125 954.546875 754.320312 C 957.757812 772.519531 975.957031 784.828125 995.761719 781.621094 C 1009.140625 806.238281 1020.378906 843.179688 979.703125 858.160156 C 928.316406 876.898438 890.847656 860.308594 875.859375 841.570312 C 890.3125 836.75 899.945312 822.839844 897.269531 808.378906 C 894.59375 792.859375 878.535156 782.148438 861.40625 785.371094 C 844.8125 788.578125 833.570312 803.03125 835.179688 818.550781 L 776.296875 817.480469 C 859.800781 867.800781 912.257812 922.929688 946.515625 1004.300781 C 1029.480469 959.328125 1126.898438 924.539062 1233.960938 905.269531 C 1341.019531 885.460938 1444.328125 883.320312 1536.390625 896.171875 C 1535.320312 864.589844 1536.929688 834.609375 1543.890625 813.738281 C 1565.300781 747.359375 1631.671875 661.71875 1631.671875 661.71875 Z M 1580.289062 682.058594 "/>
</clipPath>
<clipPath id="clip-8">
<path clip-rule="nonzero" d="M 1366.710938 861.910156 C 1366.710938 842.640625 1364.570312 830.328125 1357.078125 812.660156 C 1374.199219 801.960938 1383.300781 792.859375 1395.078125 776.800781 C 1395.078125 796.070312 1397.21875 808.378906 1404.71875 826.050781 C 1388.121094 836.75 1378.488281 846.390625 1366.710938 861.910156 Z M 1235.03125 884.929688 C 1221.648438 860.308594 1210.410156 845.851562 1188.460938 828.191406 C 1202.378906 804.640625 1208.269531 787.511719 1212.011719 760.738281 C 1225.398438 784.828125 1236.640625 799.28125 1258.578125 817.480469 C 1244.671875 841.03125 1239.308594 857.628906 1235.03125 884.929688 Z M 1047.148438 891.890625 C 1048.75 872.078125 1046.609375 859.769531 1040.191406 841.570312 C 1056.78125 852.28125 1068.558594 857.628906 1087.828125 861.910156 C 1086.761719 881.179688 1088.898438 894.03125 1094.789062 911.691406 C 1078.730469 900.988281 1066.949219 895.628906 1047.148438 891.890625 Z M 1580.289062 682.058594 C 1577.070312 667.070312 1561.550781 657.429688 1544.960938 660.109375 C 1527.828125 663.320312 1516.050781 678.839844 1518.730469 694.898438 C 1520.871094 708.820312 1534.25 718.988281 1549.238281 718.460938 C 1541.75 740.941406 1511.769531 769.839844 1457.710938 770.378906 C 1414.351562 770.910156 1412.738281 732.371094 1417.03125 704.539062 C 1436.828125 700.261719 1449.679688 682.589844 1447 663.859375 C 1443.789062 645.121094 1424.519531 633.351562 1404.71875 636.558594 C 1384.378906 640.308594 1370.460938 658.5 1373.671875 677.238281 C 1375.269531 686.871094 1380.628906 694.371094 1388.121094 699.191406 C 1351.71875 755.390625 1224.859375 774.660156 1225.929688 696.511719 C 1232.890625 699.71875 1241.449219 700.789062 1250.019531 699.191406 C 1271.429688 695.441406 1285.878906 676.171875 1282.671875 656.359375 C 1278.921875 636.558594 1259.121094 623.710938 1237.710938 627.460938 C 1232.351562 628.53125 1227 630.671875 1222.71875 633.878906 C 1232.890625 596.949219 1218.441406 579.28125 1171.328125 534.320312 C 1141.359375 593.199219 1133.859375 615.148438 1155.808594 646.191406 C 1150.460938 645.121094 1145.101562 644.589844 1139.21875 645.660156 C 1117.808594 649.941406 1103.351562 668.671875 1106.558594 688.480469 C 1110.308594 708.28125 1130.121094 721.128906 1151.53125 717.378906 C 1160.089844 715.78125 1167.589844 711.5 1173.46875 706.140625 C 1199.699219 778.941406 1073.910156 806.238281 1021.460938 766.101562 C 1026.808594 759.140625 1029.480469 750.039062 1027.878906 740.941406 C 1024.671875 722.199219 1005.929688 709.890625 985.589844 713.640625 C 965.25 717.378906 951.867188 735.578125 954.546875 754.320312 C 957.757812 772.519531 975.957031 784.828125 995.761719 781.621094 C 1009.140625 806.238281 1020.378906 843.179688 979.703125 858.160156 C 928.316406 876.898438 890.847656 860.308594 875.859375 841.570312 C 890.3125 836.75 899.945312 822.839844 897.269531 808.378906 C 894.59375 792.859375 878.535156 782.148438 861.40625 785.371094 C 844.8125 788.578125 833.570312 803.03125 835.179688 818.550781 L 776.296875 817.480469 C 859.800781 867.800781 912.257812 922.929688 946.515625 1004.300781 C 1029.480469 959.328125 1126.898438 924.539062 1233.960938 905.269531 C 1341.019531 885.460938 1444.328125 883.320312 1536.390625 896.171875 C 1535.320312 864.589844 1536.929688 834.609375 1543.890625 813.738281 C 1565.300781 747.359375 1631.671875 661.71875 1631.671875 661.71875 L 1580.289062 682.058594 "/>
</clipPath>
<linearGradient id="linear-pattern-2" gradientUnits="userSpaceOnUse" x1="-1.366989" y1="0" x2="2.453182" y2="0" gradientTransform="matrix(-173.584, -173.404, 173.404, -173.584, 1308.92, 852.81)">
<stop offset="0" stop-color="rgb(5.097961%, 11.372375%, 17.64679%)" stop-opacity="1"/>
<stop offset="0.25" stop-color="rgb(5.097961%, 11.372375%, 17.64679%)" stop-opacity="1"/>
<stop offset="0.3125" stop-color="rgb(5.097961%, 11.372375%, 17.64679%)" stop-opacity="1"/>
<stop offset="0.34375" stop-color="rgb(5.097961%, 11.372375%, 17.64679%)" stop-opacity="1"/>
<stop offset="0.351562" stop-color="rgb(5.097961%, 11.372375%, 17.64679%)" stop-opacity="1"/>
<stop offset="0.355469" stop-color="rgb(5.491638%, 11.717224%, 17.936707%)" stop-opacity="1"/>
<stop offset="0.359375" stop-color="rgb(5.885315%, 12.063599%, 18.228149%)" stop-opacity="1"/>
<stop offset="0.363281" stop-color="rgb(7.885742%, 13.816833%, 19.7052%)" stop-opacity="1"/>
<stop offset="0.367188" stop-color="rgb(9.886169%, 15.571594%, 21.182251%)" stop-opacity="1"/>
<stop offset="0.371094" stop-color="rgb(11.885071%, 17.324829%, 22.659302%)" stop-opacity="1"/>
<stop offset="0.375" stop-color="rgb(13.885498%, 19.078064%, 24.136353%)" stop-opacity="1"/>
<stop offset="0.378906" stop-color="rgb(15.884399%, 20.831299%, 25.613403%)" stop-opacity="1"/>
<stop offset="0.382812" stop-color="rgb(17.884827%, 22.58606%, 27.090454%)" stop-opacity="1"/>
<stop offset="0.386719" stop-color="rgb(19.885254%, 24.339294%, 28.565979%)" stop-opacity="1"/>
<stop offset="0.390625" stop-color="rgb(21.885681%, 26.094055%, 30.04303%)" stop-opacity="1"/>
<stop offset="0.394531" stop-color="rgb(23.884583%, 27.84729%, 31.520081%)" stop-opacity="1"/>
<stop offset="0.398438" stop-color="rgb(25.88501%, 29.600525%, 32.997131%)" stop-opacity="1"/>
<stop offset="0.402344" stop-color="rgb(27.885437%, 31.35376%, 34.474182%)" stop-opacity="1"/>
<stop offset="0.40625" stop-color="rgb(29.885864%, 33.108521%, 35.951233%)" stop-opacity="1"/>
<stop offset="0.410156" stop-color="rgb(31.884766%, 34.861755%, 37.428284%)" stop-opacity="1"/>
<stop offset="0.414062" stop-color="rgb(33.885193%, 36.616516%, 38.905334%)" stop-opacity="1"/>
<stop offset="0.417969" stop-color="rgb(35.884094%, 38.369751%, 40.382385%)" stop-opacity="1"/>
<stop offset="0.421875" stop-color="rgb(37.884521%, 40.124512%, 41.859436%)" stop-opacity="1"/>
<stop offset="0.425781" stop-color="rgb(39.884949%, 41.877747%, 43.334961%)" stop-opacity="1"/>
<stop offset="0.429687" stop-color="rgb(41.885376%, 43.630981%, 44.812012%)" stop-opacity="1"/>
<stop offset="0.433594" stop-color="rgb(43.884277%, 45.384216%, 46.289062%)" stop-opacity="1"/>
<stop offset="0.4375" stop-color="rgb(45.884705%, 47.138977%, 47.766113%)" stop-opacity="1"/>
<stop offset="0.441406" stop-color="rgb(47.883606%, 48.892212%, 49.243164%)" stop-opacity="1"/>
<stop offset="0.445312" stop-color="rgb(49.884033%, 50.646973%, 50.720215%)" stop-opacity="1"/>
<stop offset="0.449219" stop-color="rgb(51.88446%, 52.400208%, 52.197266%)" stop-opacity="1"/>
<stop offset="0.453125" stop-color="rgb(53.884888%, 54.154968%, 53.674316%)" stop-opacity="1"/>
<stop offset="0.457031" stop-color="rgb(55.502319%, 55.6427%, 55.0354%)" stop-opacity="1"/>
<stop offset="0.460938" stop-color="rgb(57.119751%, 57.131958%, 56.396484%)" stop-opacity="1"/>
<stop offset="0.464844" stop-color="rgb(58.27179%, 58.297729%, 57.617188%)" stop-opacity="1"/>
<stop offset="0.46875" stop-color="rgb(59.425354%, 59.465027%, 58.837891%)" stop-opacity="1"/>
<stop offset="0.472656" stop-color="rgb(60.577393%, 60.630798%, 60.058594%)" stop-opacity="1"/>
<stop offset="0.476562" stop-color="rgb(61.730957%, 61.798096%, 61.279297%)" stop-opacity="1"/>
<stop offset="0.480469" stop-color="rgb(62.884521%, 62.963867%, 62.5%)" stop-opacity="1"/>
<stop offset="0.484375" stop-color="rgb(64.038086%, 64.131165%, 63.722229%)" stop-opacity="1"/>
<stop offset="0.488281" stop-color="rgb(65.190125%, 65.296936%, 64.942932%)" stop-opacity="1"/>
<stop offset="0.492188" stop-color="rgb(66.343689%, 66.464233%, 66.163635%)" stop-opacity="1"/>
<stop offset="0.496094" stop-color="rgb(67.497253%, 67.631531%, 67.384338%)" stop-opacity="1"/>
<stop offset="0.5" stop-color="rgb(68.650818%, 68.798828%, 68.605042%)" stop-opacity="1"/>
<stop offset="0.503906" stop-color="rgb(69.802856%, 69.9646%, 69.825745%)" stop-opacity="1"/>
<stop offset="0.507812" stop-color="rgb(70.956421%, 71.131897%, 71.047974%)" stop-opacity="1"/>
<stop offset="0.511719" stop-color="rgb(72.108459%, 72.297668%, 72.268677%)" stop-opacity="1"/>
<stop offset="0.515625" stop-color="rgb(73.262024%, 73.464966%, 73.48938%)" stop-opacity="1"/>
<stop offset="0.519531" stop-color="rgb(74.415588%, 74.630737%, 74.710083%)" stop-opacity="1"/>
<stop offset="0.523438" stop-color="rgb(75.569153%, 75.798035%, 75.930786%)" stop-opacity="1"/>
<stop offset="0.527344" stop-color="rgb(76.721191%, 76.963806%, 77.151489%)" stop-opacity="1"/>
<stop offset="0.53125" stop-color="rgb(77.874756%, 78.131104%, 78.373718%)" stop-opacity="1"/>
<stop offset="0.535156" stop-color="rgb(79.02832%, 79.296875%, 79.594421%)" stop-opacity="1"/>
<stop offset="0.539062" stop-color="rgb(80.181885%, 80.464172%, 80.815125%)" stop-opacity="1"/>
<stop offset="0.542969" stop-color="rgb(81.333923%, 81.63147%, 82.035828%)" stop-opacity="1"/>
<stop offset="0.546875" stop-color="rgb(82.487488%, 82.798767%, 83.256531%)" stop-opacity="1"/>
<stop offset="0.550781" stop-color="rgb(83.639526%, 83.964539%, 84.477234%)" stop-opacity="1"/>
<stop offset="0.554687" stop-color="rgb(84.793091%, 85.131836%, 85.697937%)" stop-opacity="1"/>
<stop offset="0.558594" stop-color="rgb(85.946655%, 86.297607%, 86.91864%)" stop-opacity="1"/>
<stop offset="0.5625" stop-color="rgb(87.10022%, 87.464905%, 88.140869%)" stop-opacity="1"/>
<stop offset="0.566406" stop-color="rgb(88.252258%, 88.630676%, 89.361572%)" stop-opacity="1"/>
<stop offset="0.570312" stop-color="rgb(89.405823%, 89.797974%, 90.582275%)" stop-opacity="1"/>
<stop offset="0.574219" stop-color="rgb(86.460876%, 86.82251%, 87.481689%)" stop-opacity="1"/>
<stop offset="0.578125" stop-color="rgb(83.51593%, 83.847046%, 84.382629%)" stop-opacity="1"/>
<stop offset="0.582031" stop-color="rgb(80.561829%, 80.862427%, 81.272888%)" stop-opacity="1"/>
<stop offset="0.585937" stop-color="rgb(77.609253%, 77.877808%, 78.164673%)" stop-opacity="1"/>
<stop offset="0.589844" stop-color="rgb(74.655151%, 74.893188%, 75.054932%)" stop-opacity="1"/>
<stop offset="0.59375" stop-color="rgb(71.702576%, 71.908569%, 71.946716%)" stop-opacity="1"/>
<stop offset="0.597656" stop-color="rgb(68.748474%, 68.92395%, 68.838501%)" stop-opacity="1"/>
<stop offset="0.601562" stop-color="rgb(65.795898%, 65.939331%, 65.730286%)" stop-opacity="1"/>
<stop offset="0.605469" stop-color="rgb(62.841797%, 62.954712%, 62.620544%)" stop-opacity="1"/>
<stop offset="0.609375" stop-color="rgb(59.889221%, 59.970093%, 59.512329%)" stop-opacity="1"/>
<stop offset="0.613281" stop-color="rgb(56.93512%, 56.985474%, 56.402588%)" stop-opacity="1"/>
<stop offset="0.617188" stop-color="rgb(53.982544%, 54.000854%, 53.294373%)" stop-opacity="1"/>
<stop offset="0.621094" stop-color="rgb(53.068542%, 53.077698%, 52.333069%)" stop-opacity="1"/>
<stop offset="0.625" stop-color="rgb(52.156067%, 52.156067%, 51.371765%)" stop-opacity="1"/>
<stop offset="0.75" stop-color="rgb(52.156067%, 52.156067%, 51.371765%)" stop-opacity="1"/>
<stop offset="1" stop-color="rgb(52.156067%, 52.156067%, 51.371765%)" stop-opacity="1"/>
</linearGradient>
<clipPath id="clip-9">
<path clip-rule="nonzero" d="M 954 914 L 1543 914 L 1543 1095 L 954 1095 Z M 954 914 "/>
</clipPath>
<clipPath id="clip-10">
<path clip-rule="nonzero" d="M 1238.238281 930.960938 C 1132.261719 950.230469 1035.371094 985.019531 954.007812 1029.449219 C 958.292969 1046.050781 965.785156 1078.699219 968.996094 1094.21875 C 1049.289062 1050.328125 1141.890625 1000.550781 1246.808594 981.28125 C 1351.71875 962.011719 1452.890625 960.398438 1542.820312 972.710938 C 1541.210938 956.660156 1539.070312 939.53125 1538 922.398438 C 1447 909.550781 1344.761719 911.160156 1238.238281 930.960938 Z M 1238.238281 930.960938 "/>
</clipPath>
<clipPath id="clip-11">
<path clip-rule="nonzero" d="M 1238.238281 930.960938 C 1132.261719 950.230469 1035.371094 985.019531 954.007812 1029.449219 C 958.292969 1046.050781 965.785156 1078.699219 968.996094 1094.21875 C 1049.289062 1050.328125 1141.890625 1000.550781 1246.808594 981.28125 C 1351.71875 962.011719 1452.890625 960.398438 1542.820312 972.710938 C 1541.210938 956.660156 1539.070312 939.53125 1538 922.398438 C 1447 909.550781 1344.761719 911.160156 1238.238281 930.960938 "/>
</clipPath>
<linearGradient id="linear-pattern-3" gradientUnits="userSpaceOnUse" x1="-1.332421" y1="0" x2="2.181924" y2="0" gradientTransform="matrix(-110.133, -110.019, 110.019, -110.133, 1294.52, 1049.29)">
<stop offset="0" stop-color="rgb(5.097961%, 11.372375%, 17.64679%)" stop-opacity="1"/>
<stop offset="0.25" stop-color="rgb(5.097961%, 11.372375%, 17.64679%)" stop-opacity="1"/>
<stop offset="0.375" stop-color="rgb(5.097961%, 11.372375%, 17.64679%)" stop-opacity="1"/>
<stop offset="0.378906" stop-color="rgb(5.963135%, 12.130737%, 18.284607%)" stop-opacity="1"/>
<stop offset="0.382812" stop-color="rgb(6.828308%, 12.889099%, 18.92395%)" stop-opacity="1"/>
<stop offset="0.386719" stop-color="rgb(8.666992%, 14.501953%, 20.281982%)" stop-opacity="1"/>
<stop offset="0.390625" stop-color="rgb(10.507202%, 16.116333%, 21.641541%)" stop-opacity="1"/>
<stop offset="0.394531" stop-color="rgb(12.347412%, 17.729187%, 22.999573%)" stop-opacity="1"/>
<stop offset="0.398438" stop-color="rgb(14.187622%, 19.343567%, 24.359131%)" stop-opacity="1"/>
<stop offset="0.402344" stop-color="rgb(16.026306%, 20.956421%, 25.717163%)" stop-opacity="1"/>
<stop offset="0.40625" stop-color="rgb(17.866516%, 22.569275%, 27.076721%)" stop-opacity="1"/>
<stop offset="0.410156" stop-color="rgb(19.706726%, 24.182129%, 28.434753%)" stop-opacity="1"/>
<stop offset="0.414062" stop-color="rgb(21.546936%, 25.796509%, 29.792786%)" stop-opacity="1"/>
<stop offset="0.417969" stop-color="rgb(23.38562%, 27.409363%, 31.150818%)" stop-opacity="1"/>
<stop offset="0.421875" stop-color="rgb(25.22583%, 29.023743%, 32.510376%)" stop-opacity="1"/>
<stop offset="0.425781" stop-color="rgb(27.06604%, 30.636597%, 33.868408%)" stop-opacity="1"/>
<stop offset="0.429687" stop-color="rgb(28.90625%, 32.249451%, 35.227966%)" stop-opacity="1"/>
<stop offset="0.433594" stop-color="rgb(30.744934%, 33.862305%, 36.585999%)" stop-opacity="1"/>
<stop offset="0.4375" stop-color="rgb(32.585144%, 35.476685%, 37.945557%)" stop-opacity="1"/>
<stop offset="0.441406" stop-color="rgb(34.425354%, 37.089539%, 39.303589%)" stop-opacity="1"/>
<stop offset="0.445312" stop-color="rgb(36.265564%, 38.703918%, 40.663147%)" stop-opacity="1"/>
<stop offset="0.449219" stop-color="rgb(38.104248%, 40.316772%, 42.021179%)" stop-opacity="1"/>
<stop offset="0.453125" stop-color="rgb(39.944458%, 41.929626%, 43.379211%)" stop-opacity="1"/>
<stop offset="0.457031" stop-color="rgb(41.784668%, 43.54248%, 44.737244%)" stop-opacity="1"/>
<stop offset="0.460938" stop-color="rgb(43.624878%, 45.15686%, 46.096802%)" stop-opacity="1"/>
<stop offset="0.464844" stop-color="rgb(45.463562%, 46.769714%, 47.454834%)" stop-opacity="1"/>
<stop offset="0.46875" stop-color="rgb(47.303772%, 48.384094%, 48.814392%)" stop-opacity="1"/>
<stop offset="0.472656" stop-color="rgb(49.143982%, 49.996948%, 50.172424%)" stop-opacity="1"/>
<stop offset="0.476562" stop-color="rgb(50.984192%, 51.611328%, 51.531982%)" stop-opacity="1"/>
<stop offset="0.480469" stop-color="rgb(52.822876%, 53.224182%, 52.890015%)" stop-opacity="1"/>
<stop offset="0.484375" stop-color="rgb(54.663086%, 54.837036%, 54.249573%)" stop-opacity="1"/>
<stop offset="0.488281" stop-color="rgb(56.022644%, 56.117249%, 55.462646%)" stop-opacity="1"/>
<stop offset="0.492188" stop-color="rgb(57.383728%, 57.398987%, 56.67572%)" stop-opacity="1"/>
<stop offset="0.496094" stop-color="rgb(58.444214%, 58.47168%, 57.798767%)" stop-opacity="1"/>
<stop offset="0.5" stop-color="rgb(59.5047%, 59.545898%, 58.92334%)" stop-opacity="1"/>
<stop offset="0.503906" stop-color="rgb(60.565186%, 60.618591%, 60.046387%)" stop-opacity="1"/>
<stop offset="0.507812" stop-color="rgb(61.627197%, 61.69281%, 61.169434%)" stop-opacity="1"/>
<stop offset="0.511719" stop-color="rgb(62.687683%, 62.765503%, 62.29248%)" stop-opacity="1"/>
<stop offset="0.515625" stop-color="rgb(63.748169%, 63.838196%, 63.415527%)" stop-opacity="1"/>
<stop offset="0.519531" stop-color="rgb(64.808655%, 64.910889%, 64.538574%)" stop-opacity="1"/>
<stop offset="0.523438" stop-color="rgb(65.870667%, 65.985107%, 65.661621%)" stop-opacity="1"/>
<stop offset="0.527344" stop-color="rgb(66.931152%, 67.0578%, 66.784668%)" stop-opacity="1"/>
<stop offset="0.53125" stop-color="rgb(67.991638%, 68.132019%, 67.907715%)" stop-opacity="1"/>
<stop offset="0.535156" stop-color="rgb(69.052124%, 69.204712%, 69.030762%)" stop-opacity="1"/>
<stop offset="0.539062" stop-color="rgb(70.11261%, 70.278931%, 70.155334%)" stop-opacity="1"/>
<stop offset="0.542969" stop-color="rgb(71.173096%, 71.351624%, 71.278381%)" stop-opacity="1"/>
<stop offset="0.546875" stop-color="rgb(72.235107%, 72.424316%, 72.401428%)" stop-opacity="1"/>
<stop offset="0.550781" stop-color="rgb(73.295593%, 73.497009%, 73.524475%)" stop-opacity="1"/>
<stop offset="0.554688" stop-color="rgb(74.356079%, 74.571228%, 74.647522%)" stop-opacity="1"/>
<stop offset="0.558594" stop-color="rgb(75.416565%, 75.643921%, 75.770569%)" stop-opacity="1"/>
<stop offset="0.5625" stop-color="rgb(76.478577%, 76.71814%, 76.893616%)" stop-opacity="1"/>
<stop offset="0.566406" stop-color="rgb(77.539062%, 77.790833%, 78.016663%)" stop-opacity="1"/>
<stop offset="0.570312" stop-color="rgb(78.599548%, 78.865051%, 79.139709%)" stop-opacity="1"/>
<stop offset="0.574219" stop-color="rgb(79.660034%, 79.937744%, 80.262756%)" stop-opacity="1"/>
<stop offset="0.578125" stop-color="rgb(80.72052%, 81.010437%, 81.385803%)" stop-opacity="1"/>
<stop offset="0.582031" stop-color="rgb(81.781006%, 82.08313%, 82.50885%)" stop-opacity="1"/>
<stop offset="0.585938" stop-color="rgb(82.843018%, 83.157349%, 83.633423%)" stop-opacity="1"/>
<stop offset="0.589844" stop-color="rgb(83.903503%, 84.230042%, 84.75647%)" stop-opacity="1"/>
<stop offset="0.59375" stop-color="rgb(84.963989%, 85.30426%, 85.879517%)" stop-opacity="1"/>
<stop offset="0.597656" stop-color="rgb(86.024475%, 86.376953%, 87.002563%)" stop-opacity="1"/>
<stop offset="0.601562" stop-color="rgb(87.086487%, 87.451172%, 88.12561%)" stop-opacity="1"/>
<stop offset="0.605469" stop-color="rgb(88.146973%, 88.523865%, 89.248657%)" stop-opacity="1"/>
<stop offset="0.609375" stop-color="rgb(89.207458%, 89.598083%, 90.371704%)" stop-opacity="1"/>
<stop offset="0.613281" stop-color="rgb(86.853027%, 87.217712%, 87.893677%)" stop-opacity="1"/>
<stop offset="0.617188" stop-color="rgb(84.498596%, 84.838867%, 85.415649%)" stop-opacity="1"/>
<stop offset="0.621094" stop-color="rgb(81.781006%, 82.092285%, 82.556152%)" stop-opacity="1"/>
<stop offset="0.625" stop-color="rgb(79.063416%, 79.347229%, 79.696655%)" stop-opacity="1"/>
<stop offset="0.628906" stop-color="rgb(76.345825%, 76.600647%, 76.835632%)" stop-opacity="1"/>
<stop offset="0.632813" stop-color="rgb(73.629761%, 73.855591%, 73.976135%)" stop-opacity="1"/>
<stop offset="0.636719" stop-color="rgb(70.91217%, 71.110535%, 71.115112%)" stop-opacity="1"/>
<stop offset="0.640625" stop-color="rgb(68.196106%, 68.365479%, 68.255615%)" stop-opacity="1"/>
<stop offset="0.644531" stop-color="rgb(65.478516%, 65.618896%, 65.396118%)" stop-opacity="1"/>
<stop offset="0.648438" stop-color="rgb(62.762451%, 62.87384%, 62.536621%)" stop-opacity="1"/>
<stop offset="0.652344" stop-color="rgb(60.044861%, 60.127258%, 59.675598%)" stop-opacity="1"/>
<stop offset="0.65625" stop-color="rgb(57.328796%, 57.382202%, 56.816101%)" stop-opacity="1"/>
<stop offset="0.660156" stop-color="rgb(54.742432%, 54.768372%, 54.093933%)" stop-opacity="1"/>
<stop offset="0.664062" stop-color="rgb(52.156067%, 52.156067%, 51.371765%)" stop-opacity="1"/>
<stop offset="0.671875" stop-color="rgb(52.156067%, 52.156067%, 51.371765%)" stop-opacity="1"/>
<stop offset="0.6875" stop-color="rgb(52.156067%, 52.156067%, 51.371765%)" stop-opacity="1"/>
<stop offset="0.75" stop-color="rgb(52.156067%, 52.156067%, 51.371765%)" stop-opacity="1"/>
<stop offset="1" stop-color="rgb(52.156067%, 52.156067%, 51.371765%)" stop-opacity="1"/>
</linearGradient>
</defs>
<path fill-rule="nonzero" fill="rgb(100%, 100%, 100%)" fill-opacity="1" d="M 3000.5 3000.5 L 0.5 3000.5 L 0.5 0.5 L 3000.5 0.5 L 3000.5 3000.5 "/>
<path fill="none" stroke-width="10" stroke-linecap="butt" stroke-linejoin="miter" stroke="rgb(0%, 0%, 0%)" stroke-opacity="1" stroke-miterlimit="10" d="M 30005 5 L 5 5 L 5 30005 L 30005 30005 Z M 30005 5 " transform="matrix(0.1, 0, 0, -0.1, 0, 3001)"/>
<path fill-rule="nonzero" fill="rgb(4.315186%, 9.008789%, 19.213867%)" fill-opacity="1" d="M 1612.398438 836.21875 L 2280.96875 836.21875 C 2368.75 1596.308594 2132.699219 2109.648438 1500.53125 2491.300781 C 874.789062 2113.398438 637.125 1606.488281 717.414062 858.699219 C 766.660156 889.75 800.917969 914.371094 827.148438 941.671875 L 815.371094 941.671875 C 764.519531 1570.621094 960.433594 2020.789062 1500.53125 2367.121094 C 2040.628906 2020.789062 2236.539062 1570.621094 2185.691406 941.671875 L 1608.121094 941.671875 C 1605.449219 899.921875 1606.519531 866.191406 1612.398438 836.21875 "/>
<path fill-rule="nonzero" fill="rgb(4.315186%, 9.008789%, 19.213867%)" fill-opacity="1" d="M 2016.539062 1554.558594 C 2007.441406 1619.871094 2011.191406 1704.980469 2048.121094 1761.179688 C 1897.710938 1795.441406 1966.761719 1905.710938 1842.570312 1966.730469 C 1852.738281 1904.101562 1822.230469 1861.28125 1778.339844 1828.628906 C 1789.578125 1913.199219 1780.480469 2051.300781 1706.078125 2133.738281 C 1714.109375 1987.601562 1647.199219 1909.449219 1565.828125 1848.429688 C 1699.648438 2038.460938 1666.46875 2238.648438 1535.320312 2422.789062 C 1345.300781 2345.710938 1218.441406 2287.359375 1108.171875 2109.109375 C 1140.820312 2177.628906 1180.96875 2225.800781 1180.96875 2225.800781 C 1169.191406 2226.339844 1157.421875 2225.269531 1145.101562 2223.660156 C 880.675781 1970.480469 739.898438 1666.96875 708.851562 1290.671875 C 789.679688 1206.101562 874.789062 1081.378906 1003.789062 1042.839844 L 1320.140625 940.058594 C 1275.710938 921.859375 1237.171875 908.480469 1215.761719 904.730469 C 1331.921875 865.121094 1467.878906 872.621094 1557.808594 975.390625 C 1564.761719 987.171875 1588.851562 1035.878906 1599.558594 1082.980469 C 1611.871094 1051.941406 1638.628906 1015.539062 1699.121094 988.238281 C 1676.640625 1021.960938 1674.5 1064.25 1675.570312 1096.359375 C 1695.910156 1097.429688 1723.210938 1100.648438 1744.621094 1112.421875 C 1783.691406 1133.828125 1781.550781 1185.21875 1781.550781 1185.21875 L 1980.140625 1309.410156 C 2004.230469 1324.390625 2012.789062 1339.921875 1996.199219 1382.199219 C 2023.5 1450.179688 2024.03125 1501.039062 2016.539062 1554.558594 "/>
<g clip-path="url(#clip-0)">
<g clip-path="url(#clip-1)">
<g clip-path="url(#clip-2)">
<path fill-rule="nonzero" fill="url(#linear-pattern-0)" d="M 1512.414062 1696.632812 L 1514.421875 1694.910156 L 1512.644531 1692.839844 L 1510.636719 1694.5625 Z M 1512.414062 1696.632812 "/>
</g>
</g>
</g>
<g clip-path="url(#clip-3)">
<g clip-path="url(#clip-4)">
<g clip-path="url(#clip-5)">
<path fill-rule="nonzero" fill="url(#linear-pattern-1)" d="M 1260.585938 2711.128906 L 2522.574219 1628.480469 L 1454.097656 383.011719 L 192.109375 1465.660156 Z M 1260.585938 2711.128906 "/>
</g>
</g>
</g>
<path fill-rule="nonzero" fill="rgb(91.796875%, 92.1875%, 92.96875%)" fill-opacity="1" d="M 950.261719 1827.558594 C 1052.5 2021.859375 1268.21875 2080.738281 1399.359375 2082.351562 C 1309.96875 2032.570312 1204.519531 1947.988281 1139.21875 1845.21875 C 1159.019531 1894.46875 1187.390625 1947.988281 1228.609375 1996.699219 C 1027.339844 1931.941406 950.261719 1827.558594 950.261719 1827.558594 Z M 1518.730469 1140.789062 C 1518.730469 1140.789062 1403.648438 1191.640625 1394.539062 1229.109375 C 1385.449219 1266.050781 1464.128906 1327.070312 1464.128906 1327.070312 L 1389.730469 1327.070312 C 1334.058594 1273.011719 1295.519531 1211.980469 1518.730469 1140.789062 Z M 1757.460938 1459.820312 C 1758.539062 1463.570312 1756.929688 1467.851562 1751.039062 1470.519531 C 1725.878906 1481.230469 1700.730469 1493.011719 1676.101562 1505.851562 C 1677.710938 1510.671875 1678.78125 1515.488281 1679.851562 1520.308594 C 1705.011719 1505.851562 1732.308594 1496.21875 1747.289062 1487.121094 C 1766.558594 1475.339844 1757.460938 1459.820312 1757.460938 1459.820312 Z M 1733.378906 1434.128906 C 1737.121094 1437.871094 1735.519531 1445.371094 1727.488281 1447.511719 C 1705.011719 1453.929688 1682.53125 1460.351562 1660.039062 1468.378906 C 1661.648438 1471.058594 1663.261719 1474.808594 1665.398438 1478.019531 C 1596.351562 1517.628906 1508.558594 1581.859375 1467.878906 1631.109375 C 1546.03125 1559.378906 1642.910156 1497.289062 1735.519531 1459.820312 C 1745.691406 1446.96875 1734.980469 1435.730469 1733.378906 1434.128906 Z M 1762.28125 1731.210938 L 1762.28125 1731.738281 C 1667 1646.628906 1690.558594 1574.371094 1690.558594 1574.371094 C 1690.558594 1574.371094 1745.148438 1537.96875 1766.558594 1519.230469 C 1787.441406 1500.5 1770.308594 1488.191406 1770.308594 1488.191406 C 1773.519531 1491.398438 1774.058594 1497.820312 1767.101562 1502.109375 C 1734.449219 1521.910156 1702.328125 1543.859375 1671.28125 1566.871094 C 1650.410156 1633.78125 1720 1693.738281 1762.28125 1731.738281 C 1797.078125 1725.851562 1838.828125 1714.609375 1885.398438 1711.941406 C 1923.398438 1709.789062 1959.269531 1713.539062 1981.210938 1717.289062 C 1978 1694.269531 1986.03125 1616.121094 1991.378906 1583.46875 C 1968.359375 1626.828125 1957.660156 1686.78125 1957.660156 1686.78125 C 1957.660156 1686.78125 1912.699219 1684.101562 1844.71875 1702.300781 C 1806.710938 1712.46875 1778.878906 1723.710938 1762.28125 1731.210938 Z M 1980.140625 1424.488281 C 1981.210938 1438.410156 1981.210938 1451.789062 1979.070312 1475.339844 C 1977.460938 1492.46875 1974.25 1505.851562 1995.128906 1512.28125 C 2013.859375 1518.160156 2002.089844 1461.960938 1994.058594 1429.839844 C 1992.449219 1422.878906 1988.171875 1406.828125 1984.960938 1395.050781 C 1978.53125 1402.539062 1979.070312 1410.039062 1980.140625 1424.488281 Z M 1868.800781 1543.859375 C 1911.628906 1527.261719 1951.238281 1504.78125 1952.839844 1462.5 C 1954.449219 1429.839844 1940.53125 1402.539062 1924.46875 1398.800781 C 1903.601562 1393.441406 1884.328125 1414.851562 1838.289062 1413.78125 C 1792.789062 1412.179688 1760.140625 1365.609375 1760.140625 1365.609375 C 1760.140625 1365.609375 1785.828125 1431.449219 1844.179688 1431.449219 C 1875.230469 1431.449219 1891.820312 1425.558594 1902.53125 1423.960938 C 1914.300781 1422.351562 1920.730469 1428.769531 1924.46875 1437.339844 C 1943.210938 1480.160156 1909.480469 1527.261719 1868.800781 1543.859375 Z M 1859.699219 1547.070312 C 1861.308594 1546.53125 1862.910156 1546 1864.519531 1545.460938 C 1862.910156 1546 1861.308594 1546.53125 1859.699219 1547.070312 Z M 1512.308594 1880.550781 C 1525.148438 1892.320312 1536.929688 1904.640625 1547.628906 1917.480469 C 1535.320312 1751.550781 1381.160156 1761.179688 1343.691406 1673.929688 C 1348.511719 1715.148438 1365.640625 1741.378906 1443.789062 1787.410156 C 1489.820312 1814.710938 1506.421875 1853.25 1512.308594 1880.550781 Z M 1148.320312 1460.890625 C 1062.671875 1658.410156 1227.539062 1880.011719 1411.140625 1946.921875 C 1465.199219 1966.730469 1497.320312 1946.921875 1446.46875 1828.628906 C 1461.460938 1871.449219 1464.671875 1920.691406 1405.25 1905.710938 C 1335.128906 1888.578125 1236.101562 1777.238281 1208.800781 1738.160156 C 1157.949219 1665.371094 1125.828125 1574.371094 1148.320312 1460.890625 Z M 944.375 1137.578125 C 842.671875 1199.671875 772.015625 1292.28125 767.195312 1378.460938 C 795.03125 1354.371094 880.140625 1312.078125 932.597656 1307.800781 C 955.613281 1289.058594 972.742188 1278.359375 972.742188 1278.359375 C 972.742188 1278.359375 883.351562 1288.53125 814.300781 1312.621094 C 835.710938 1243.03125 896.734375 1179.328125 944.375 1137.578125 Z M 1614.539062 1204.488281 C 1635.421875 1200.738281 1655.230469 1198.601562 1672.351562 1199.140625 L 1673.429688 1228.039062 L 1807.25 1297.628906 L 1716.25 1273.539062 L 1716.78125 1274.078125 C 1716.78125 1274.078125 1675.03125 1249.988281 1637.558594 1234.46875 L 1638.101562 1202.878906 C 1638.101562 1202.878906 1629 1202.878906 1614.539062 1204.488281 "/>
<path fill-rule="nonzero" fill="rgb(5.099487%, 11.376953%, 17.651367%)" fill-opacity="1" d="M 1559.949219 989.839844 L 1547.101562 1022.5 L 1541.210938 987.171875 C 1444.859375 973.78125 1344.761719 978.601562 1249.480469 995.730469 C 1144.03125 1015 1051.429688 1065.851562 958.292969 1116.171875 C 920.820312 939.53125 877.464844 896.699219 731.867188 805.710938 L 821.796875 804.101562 C 826.078125 787.511719 841.066406 774.121094 858.730469 770.910156 C 882.816406 766.628906 907.441406 781.078125 911.722656 806.238281 C 914.398438 819.621094 909.582031 833.011719 900.480469 842.640625 C 905.835938 845.851562 911.722656 847.988281 917.609375 849.601562 C 936.34375 853.878906 956.6875 850.671875 974.351562 844.25 C 982.378906 841.03125 990.40625 836.75 992.550781 827.648438 C 995.226562 818.550781 991.480469 806.238281 986.660156 796.609375 C 964.179688 795.539062 944.375 780.011719 940.09375 756.460938 C 935.273438 729.160156 956.148438 704 982.914062 699.191406 C 1010.210938 693.828125 1037.511719 710.429688 1042.328125 738.261719 C 1043.941406 745.761719 1043.398438 753.78125 1040.71875 760.738281 C 1055.710938 767.699219 1073.910156 770.378906 1089.441406 769.839844 C 1115.660156 769.308594 1157.421875 758.070312 1161.699219 730.230469 C 1159.019531 730.769531 1156.878906 731.300781 1154.199219 731.839844 C 1125.828125 737.191406 1096.929688 720.058594 1092.109375 691.160156 C 1087.828125 663.859375 1106.03125 639.230469 1131.71875 632.28125 C 1130.648438 629.058594 1130.121094 625.851562 1129.578125 622.640625 C 1124.230469 591.589844 1144.570312 554.121094 1157.949219 527.359375 L 1167.050781 509.699219 L 1181.5 523.609375 C 1202.910156 543.960938 1233.960938 571.789062 1239.308594 601.761719 C 1239.851562 605.511719 1240.378906 608.71875 1240.378906 612.46875 C 1266.609375 610.328125 1292.308594 626.921875 1297.121094 654.21875 C 1301.941406 682.589844 1280.53125 708.820312 1252.699219 713.640625 C 1250.019531 714.171875 1246.808594 714.710938 1244.128906 714.710938 C 1245.738281 717.378906 1247.339844 719.53125 1249.480469 721.671875 C 1267.679688 739.871094 1305.691406 733.980469 1327.101562 725.949219 C 1341.550781 720.601562 1357.070312 712.03125 1367.78125 700.261719 C 1363.5 694.371094 1360.289062 687.410156 1359.21875 679.910156 C 1354.398438 652.078125 1374.738281 627.460938 1402.039062 622.109375 C 1428.800781 617.289062 1456.640625 633.878906 1461.460938 661.71875 C 1465.199219 684.730469 1451.28125 706.679688 1430.941406 715.78125 C 1430.410156 717.921875 1430.410156 720.601562 1430.410156 723.269531 C 1429.871094 743.078125 1435.230469 755.929688 1457.710938 755.929688 C 1476.980469 755.390625 1496.78125 751.109375 1512.839844 740.398438 C 1517.660156 737.191406 1523.011719 732.910156 1526.761719 728.089844 C 1515.519531 721.671875 1506.421875 710.960938 1504.28125 697.039062 C 1500 672.421875 1518.191406 649.941406 1542.28125 645.660156 C 1559.949219 642.449219 1578.148438 649.410156 1588.320312 663.859375 L 1678.78125 629.058594 C 1562.089844 761.28125 1541.210938 823.371094 1559.949219 989.839844 "/>
<path fill-rule="nonzero" fill="rgb(91.796875%, 92.1875%, 92.96875%)" fill-opacity="1" d="M 1382.230469 775.199219 L 1380.628906 780.011719 C 1380.628906 780.011719 1382.230469 801.421875 1388.660156 820.691406 C 1375.808594 829.789062 1361.359375 843.179688 1353.859375 859.769531 C 1339.410156 891.351562 1274.640625 881.179688 1274.640625 881.179688 L 1281.601562 844.78125 C 1307.289062 856.019531 1291.238281 836.21875 1273.570312 818.019531 C 1263.398438 795.539062 1247.339844 762.878906 1243.058594 762.351562 C 1236.640625 762.351562 1213.078125 737.191406 1208.800781 739.328125 C 1204.519531 740.941406 1198.628906 766.101562 1198.628906 766.101562 C 1204.519531 784.289062 1225.929688 807.851562 1240.378906 820.691406 C 1230.75 837.820312 1219.511719 864.050781 1220.039062 883.859375 C 1221.648438 914.898438 1357.609375 884.390625 1358.148438 887.070312 C 1358.148438 889.75 1414.890625 871.550781 1414.890625 871.550781 C 1414.890625 871.550781 1443.261719 859.230469 1446.46875 854.949219 C 1450.210938 851.210938 1447.539062 800.351562 1447.539062 800.351562 L 1382.769531 760.210938 L 1382.230469 775.199219 "/>
<g clip-path="url(#clip-6)">
<g clip-path="url(#clip-7)">
<g clip-path="url(#clip-8)">
<path fill-rule="nonzero" fill="url(#linear-pattern-2)" d="M 1204.425781 1431.988281 L 1866.660156 769.066406 L 1203.539062 106.632812 L 541.304688 769.554688 Z M 1204.425781 1431.988281 "/>
</g>
</g>
</g>
<g clip-path="url(#clip-9)">
<g clip-path="url(#clip-10)">
<g clip-path="url(#clip-11)">
<path fill-rule="nonzero" fill="url(#linear-pattern-3)" d="M 1248.71875 1388.625 L 1635.15625 1001.789062 L 1248.109375 615.144531 L 861.675781 1001.980469 Z M 1248.71875 1388.625 "/>
</g>
</g>
</g>
<path fill-rule="nonzero" fill="rgb(91.796875%, 92.1875%, 92.96875%)" fill-opacity="1" d="M 1231.28125 721.671875 C 1255.371094 769.308594 1356.539062 748.429688 1388.121094 699.191406 C 1388.121094 699.191406 1397.21875 705.070312 1400.429688 706.679688 L 1399.898438 707.210938 C 1365.640625 760.738281 1246.808594 786.96875 1231.28125 721.671875 Z M 1380.089844 691.691406 C 1363.5 670.28125 1379.019531 641.371094 1404.71875 636.558594 C 1424.519531 633.351562 1442.71875 644.589844 1446.46875 662.789062 C 1428.800781 635.488281 1374.199219 644.050781 1380.089844 691.691406 Z M 1533.179688 714.710938 C 1525.691406 710.429688 1520.339844 703.46875 1518.730469 694.898438 C 1516.050781 678.839844 1527.828125 663.320312 1544.960938 660.109375 C 1555.660156 658.5 1566.371094 661.71875 1572.789062 668.671875 C 1536.929688 662.789062 1518.730469 685.800781 1533.179688 714.710938 Z M 1563.691406 721.128906 C 1543.890625 772.519531 1450.75 804.101562 1423.988281 756.460938 C 1449.679688 790.71875 1532.109375 761.808594 1548.710938 720.058594 C 1554.058594 721.128906 1559.410156 721.128906 1563.691406 721.128906 "/>
</svg>
